<svg width="12" height="14" viewBox="0 0 12 14" fill="none" xmlns="http://www.w3.org/2000/svg">
<path fill-rule="evenodd" clip-rule="evenodd" d="M8.35638 0.542082C8.3659 0.528521 8.38456 0.525225 8.39813 0.534721L9.32536 1.18398C9.33893 1.19347 9.34222 1.21216 9.33273 1.22572L8.04218 3.06881C8.66959 3.26925 9.09704 3.48546 9.09704 3.48546C9.09704 3.48546 8.05223 5.28263 6.28013 5.28263C4.50803 5.28263 3.2488 3.60763 3.2488 3.60763C3.2488 3.60763 3.6953 3.32269 4.35717 3.07829L2.94161 1.39132C2.93098 1.37864 2.93263 1.35973 2.94531 1.34909L3.81242 0.62149C3.82512 0.610849 3.84402 0.612503 3.85466 0.625185L5.64698 2.76119C5.80045 2.74383 5.9568 2.73413 6.11457 2.73413C6.34134 2.73413 6.56783 2.75137 6.78894 2.78063L8.35638 0.542082ZM8.70698 5.36774C9.17988 5.03 9.89546 4.14848 9.89546 4.14848C9.89546 4.14848 11.7233 5.59694 11.7233 8.66821C11.7233 11.7395 8.56326 13.5879 8.56326 13.5879C8.56326 13.5879 7.05346 12.0632 6.68281 10.1303C6.31219 8.1975 7.23108 6.05132 7.23108 6.05132C7.23108 6.05132 8.23406 5.70549 8.70698 5.36774ZM3.61396 5.36774C3.14107 5.03 2.42548 4.14848 2.42548 4.14848C2.42548 4.14848 0.597656 5.59694 0.597656 8.66821C0.597656 11.7395 3.75769 13.5879 3.75769 13.5879C3.75769 13.5879 5.26749 12.0632 5.63813 10.1303C6.00875 8.1975 5.08987 6.05132 5.08987 6.05132C5.08987 6.05132 4.08689 5.70549 3.61396 5.36774Z" fill="#91C12F"/>
</svg>
