<svg width="14" height="14" viewBox="0 0 14 14" fill="none" xmlns="http://www.w3.org/2000/svg">
<g filter="url(#filter0_d_1520_17650)">
<path fill-rule="evenodd" clip-rule="evenodd" d="M7.78761 7.03017C7.87611 6.9762 7.9512 6.86311 8.01175 6.73741C8.80867 7.06312 9.36869 7.83277 9.36869 8.73034C9.36869 9.92272 8.38036 10.8894 7.16119 10.8894C6.66072 10.8894 6.19915 10.7265 5.82889 10.4519C5.70743 10.3944 5.6075 10.3392 5.52573 10.294C5.39889 10.2238 5.31572 10.1779 5.26363 10.185C5.11139 10.206 5.15559 10.3461 5.19576 10.4734C5.22303 10.5598 5.24846 10.6403 5.2091 10.6735C5.16794 10.7083 5.03459 10.5812 4.87878 10.4326C4.66668 10.2304 4.41295 9.98847 4.2933 10.0611C4.1987 10.1186 4.29055 10.2745 4.40298 10.4652L4.41132 10.4794C4.45881 10.5601 4.51385 10.6422 4.56407 10.7171C4.66617 10.8694 4.7484 10.9921 4.70726 11.0129C4.65752 11.038 4.311 10.8041 4.01899 10.4794C3.90628 10.3541 3.79712 10.2183 3.69566 10.092V10.092C3.47358 9.81567 3.28856 9.58549 3.1847 9.61275C3.05977 9.64555 3.15428 9.90326 3.29315 10.1513C3.35809 10.2672 3.43448 10.3853 3.50062 10.4876V10.4876C3.60348 10.6466 3.68155 10.7673 3.65324 10.7821C3.61503 10.8021 3.27885 10.4743 3.0505 10.0611C2.91488 9.81575 2.801 9.54458 2.7088 9.32505C2.60882 9.08696 2.53434 8.90962 2.4853 8.89176C2.3149 8.82976 2.3149 9.17717 2.38324 9.67858C2.39216 9.744 2.40543 9.81261 2.42178 9.88247C3.08452 12.0268 5.12039 13.5881 7.52911 13.5881C10.4754 13.5881 12.8639 11.2521 12.8639 8.37051C12.8639 5.62785 10.7003 3.37946 7.9513 3.16896C7.95477 3.03976 8.02221 2.78355 8.02221 2.78355C8.02221 2.78355 8.5075 1.60938 8.53316 1.35848C8.53484 1.34183 8.53686 1.32373 8.53903 1.30446C8.56925 1.03336 8.62549 0.529297 8.19184 0.529297C7.96025 0.529297 7.85257 0.701577 7.72941 0.898614V0.898617C7.68212 0.974258 7.63253 1.05355 7.5728 1.12814C7.14257 1.6654 6.41914 2.33633 6.00893 2.69377C5.1419 3.44927 4.29124 4.07018 3.7951 4.4323L3.79508 4.43233C3.56943 4.59702 3.41714 4.7082 3.37 4.75413C3.01481 5.10039 1.74127 7.39757 1.74127 7.39757C1.74127 7.39757 1.32942 8.13458 1.4758 8.28407C1.62219 8.43353 1.97521 8.39928 1.97521 8.39928C1.97521 8.39928 6.71773 7.31129 7.14232 7.22549C7.25663 7.20238 7.33733 7.18904 7.39929 7.17881C7.5675 7.15104 7.59769 7.14604 7.78761 7.03017ZM4.43447 5.63203C4.1799 5.874 3.75771 6.45157 3.75771 6.45157C3.75771 6.45157 4.54236 6.49991 4.9745 6.08914C5.40667 5.67835 5.30766 4.9783 5.30766 4.9783C5.30766 4.9783 4.68902 5.39006 4.43447 5.63203Z" fill="#0B6DC3"/>
</g>
<defs>
<filter id="filter0_d_1520_17650" x="-2.55566" y="0.529297" width="19.4199" height="21.0588" filterUnits="userSpaceOnUse" color-interpolation-filters="sRGB">
<feFlood flood-opacity="0" result="BackgroundImageFix"/>
<feColorMatrix in="SourceAlpha" type="matrix" values="0 0 0 0 0 0 0 0 0 0 0 0 0 0 0 0 0 0 127 0" result="hardAlpha"/>
<feOffset dy="4"/>
<feGaussianBlur stdDeviation="2"/>
<feComposite in2="hardAlpha" operator="out"/>
<feColorMatrix type="matrix" values="0 0 0 0 0 0 0 0 0 0 0 0 0 0 0 0 0 0 0.25 0"/>
<feBlend mode="normal" in2="BackgroundImageFix" result="effect1_dropShadow_1520_17650"/>
<feBlend mode="normal" in="SourceGraphic" in2="effect1_dropShadow_1520_17650" result="shape"/>
</filter>
</defs>
</svg>
