<svg width="14" height="14" viewBox="0 0 14 14" fill="none" xmlns="http://www.w3.org/2000/svg">
<path fill-rule="evenodd" clip-rule="evenodd" d="M3.24801 10.884L5.34257 10.2766L7.15168 13.5845C7.15405 13.5888 7.1602 13.5888 7.16254 13.5845L8.97165 10.2766L11.0662 10.884C11.0709 10.8853 11.0753 10.881 11.0739 10.8763L10.4665 8.82315L13.6831 7.06391C13.6874 7.06156 13.6874 7.05542 13.6831 7.05307L10.44 5.27932L11.0739 3.1366C11.0753 3.1319 11.0709 3.12754 11.0662 3.1289L8.92253 3.75049L7.16254 0.532515C7.1602 0.528224 7.15405 0.528224 7.1517 0.532515L5.39172 3.75049L3.24801 3.1289C3.24332 3.12754 3.23895 3.1319 3.24036 3.1366L3.8743 5.27932L0.631148 7.05307C0.626857 7.05542 0.626857 7.06156 0.631148 7.06391L3.84777 8.82315L3.24036 10.8763C3.23895 10.881 3.24332 10.8853 3.24801 10.884ZM4.87337 7.08105L6.35726 7.89261L7.16882 9.37647C7.17117 9.38078 7.17734 9.38078 7.17968 9.37647L7.99124 7.89261L9.4751 7.08105C9.47939 7.0787 9.47939 7.07253 9.4751 7.07019L7.99124 6.25863L7.17968 4.77477C7.17734 4.77046 7.17117 4.77046 7.16882 4.77477L6.35726 6.25863L4.87337 7.07019C4.86909 7.07253 4.86909 7.0787 4.87337 7.08105Z" fill="#EC8FE6"/>
</svg>
