<svg width="13" height="14" viewBox="0 0 13 14" fill="none" xmlns="http://www.w3.org/2000/svg">
<path fill-rule="evenodd" clip-rule="evenodd" d="M1.87837 1.61495C2.03641 0.990982 2.60169 0.529297 3.27478 0.529297C3.77967 0.529297 4.2239 0.789063 4.48109 1.18224H4.90227C5.16393 0.913706 5.5295 0.746944 5.93404 0.746944C6.52715 0.746944 7.03654 1.10542 7.25737 1.61753H7.60998C7.83094 1.47959 8.09201 1.39988 8.37168 1.39988C8.96481 1.39988 9.47418 1.75836 9.69501 2.27047H10.6539C10.6621 2.27047 10.6698 2.27268 10.6764 2.27653C10.7202 2.27252 10.7645 2.27047 10.8093 2.27047C11.6049 2.27047 12.2497 2.91537 12.2497 3.71091V8.03011L12.2498 8.03812L12.2497 8.04613V8.10834C12.2497 8.13468 12.249 8.16093 12.2476 8.18705C12.1609 11.1834 9.46666 13.5881 6.15563 13.5881C2.78995 13.5881 0.0615234 11.1033 0.0615234 8.03812C0.0615234 6.55857 0.697246 5.21423 1.7335 4.21931C1.73092 5.66172 1.75528 7.15293 1.86759 7.12734C2.16831 7.05878 1.93335 2.59115 1.87837 1.61495Z" fill="#CE416B"/>
</svg>
