<svg width="14" height="14" viewBox="0 0 14 14" fill="none" xmlns="http://www.w3.org/2000/svg">
<g clip-path="url(#clip0_1520_23178)">
<path fill-rule="evenodd" clip-rule="evenodd" d="M9.61291 10.614C9.77426 10.0241 9.46108 8.81119 9.46108 8.81119C9.46108 8.81119 9.23393 9.79925 8.87899 10.1644C8.57619 10.4759 8.20521 10.692 7.67317 10.7488C8.10816 10.5375 8.40732 10.0969 8.40732 9.58771C8.40732 8.87289 7.81784 8.2934 7.09067 8.2934C6.36351 8.2934 5.774 8.87289 5.774 9.58771C5.774 9.78293 5.818 9.96807 5.89674 10.1341C5.44192 9.77173 5.3704 9.19081 5.3704 9.19081C5.3704 9.19081 4.86254 11.2994 6.26192 12.2912C7.66128 13.2831 10.4026 12.4305 10.4026 12.4305C10.4026 12.4305 6.47961 15.1908 3.57265 12.1866C1.06854 9.59865 2.91907 6.1916 2.91907 6.1916C2.91907 6.1916 2.83915 6.50766 2.83915 6.87456C2.83915 7.24145 3.03808 7.52061 3.03808 7.52061C3.03808 7.52061 3.63146 6.26985 4.09327 5.76119C4.53033 5.2798 5.07821 4.88936 5.55144 4.55213C5.91571 4.29253 6.23575 4.06446 6.42689 3.8507C7.47968 2.67351 6.83416 0.529297 6.83416 0.529297C6.83416 0.529297 8.02094 1.57553 8.35225 2.92676C8.47856 3.44182 8.3973 4.02786 8.32466 4.55192C8.20672 5.40269 8.1114 6.09014 8.96342 6.04553C10.3403 5.97342 9.14382 3.8507 9.14382 3.8507C9.14382 3.8507 12.267 5.49224 12.0337 8.36319C11.8003 11.2341 8.61988 11.8868 8.61988 11.8868C8.61988 11.8868 9.45154 11.204 9.61291 10.614Z" fill="#FF9D55"/>
</g>
<defs>
<clipPath id="clip0_1520_23178">
<rect width="13.0588" height="13.0588" fill="white" transform="translate(0.62793 0.529297)"/>
</clipPath>
</defs>
</svg>
