<svg width="14" height="14" viewBox="0 0 14 14" fill="none" xmlns="http://www.w3.org/2000/svg">
<g clip-path="url(#clip0_1503_18526)">
<path fill-rule="evenodd" clip-rule="evenodd" d="M5.18607 12.7142C7.09906 12.7142 8.73682 11.651 9.41295 10.1438C9.42121 10.1255 6.69842 10.8514 6.78524 10.5948C6.82401 10.4802 8.49309 9.87048 9.70912 9.15928C10.408 8.7505 10.7299 7.88518 10.7299 7.88518C10.7299 7.88518 9.55238 8.45688 8.95711 8.60191C7.75754 8.8942 6.70158 8.86273 6.70158 8.83227C6.70158 8.76642 8.45496 8.43327 10.892 6.94821C12.0383 6.24969 12.3496 5.04649 12.3496 5.04649C12.3496 5.04649 11.0893 5.79717 10.3275 6.04501C8.52079 6.63273 6.87206 6.80984 6.87206 6.73031C6.87206 6.56004 8.32299 6.16106 9.86133 5.41566C10.6612 5.0281 11.3539 4.52177 12.1566 3.95868C13.4701 3.0374 13.6867 1.39658 13.6867 1.39658C13.6867 1.39658 12.3912 2.23214 11.759 2.50962C9.15037 3.6546 6.84691 4.25521 5.18607 4.38524C2.67898 4.58153 0.62793 6.33077 0.62793 8.60191C0.62793 10.8731 2.66867 12.7142 5.18607 12.7142Z" fill="#89AAE3"/>
</g>
<defs>
<clipPath id="clip0_1503_18526">
<rect width="13.0588" height="13.0588" fill="white" transform="translate(0.62793 0.529388)"/>
</clipPath>
</defs>
</svg>
