<svg width="14" height="14" viewBox="0 0 14 14" fill="none" xmlns="http://www.w3.org/2000/svg">
<path fill-rule="evenodd" clip-rule="evenodd" d="M10.0382 13.5431C8.86032 13.6034 7.51176 13.6034 7.05348 13.5431C3.47868 13.0728 0.62793 10.4591 0.62793 6.92629C0.62793 3.39345 3.55124 0.52951 7.15734 0.52951C10.7634 0.52951 13.6868 3.39345 13.6868 6.92629C13.6868 8.56938 13.0544 10.0678 12.0151 11.2007C11.7329 11.5083 12.1201 11.7241 12.5135 11.9433C12.8994 12.1584 13.2912 12.3767 13.0635 12.6883C12.8126 13.0316 11.4523 13.4707 10.0382 13.5431ZM6.23914 6.12669C6.23914 6.67869 5.78236 7.12618 5.21892 7.12618C4.65548 7.12618 4.1987 6.67869 4.1987 6.12669C4.1987 5.75648 4.40415 5.4333 4.70942 5.26055C4.727 5.74187 5.12274 6.12667 5.60837 6.12667H6.23914V6.12669ZM9.40121 5.26055C9.38364 5.74187 8.9879 6.12667 8.50227 6.12667H7.87149V6.12669C7.87149 6.67869 8.32827 7.12618 8.89172 7.12618C9.45516 7.12618 9.91194 6.67869 9.91194 6.12669C9.91194 5.75648 9.70649 5.4333 9.40121 5.26055Z" fill="#5269AD"/>
</svg>
