<svg width="12" height="14" viewBox="0 0 12 14" fill="none" xmlns="http://www.w3.org/2000/svg">
<path fill-rule="evenodd" clip-rule="evenodd" d="M2.1128 11.768C2.06798 11.7258 2.02365 11.6829 1.97983 11.639C-0.333122 9.3261 -0.333121 5.57605 1.97983 3.26311C4.29278 0.950145 11.6627 0.79541 11.6627 0.79541C11.6627 0.79541 12.6687 9.3261 10.3558 11.639C8.30158 13.6933 5.11385 13.9231 2.80604 12.3285L4.66559 10.0465L7.63826 9.40468L5.21169 9.1621L6.7538 7.59193L8.5092 7.20738L7.12113 6.79631L8.5092 4.29228L6.53481 6.50687L5.77238 5.43098L6.04077 7.20738L4.66559 8.75766L4.02813 6.79629V9.40468L2.1128 11.768Z" fill="#63BC5A"/>
</svg>
