<svg width="14" height="14" viewBox="0 0 14 14" fill="none" xmlns="http://www.w3.org/2000/svg">
<g clip-path="url(#clip0_1520_18286)">
<path fill-rule="evenodd" clip-rule="evenodd" d="M3.50403 11.7455C3.50049 11.7455 3.49801 11.742 3.49919 11.7386L6.83314 2.31812C6.83388 2.31607 6.83582 2.3147 6.83799 2.3147L10.3971 2.3147C10.3992 2.3147 10.4012 2.31608 10.4019 2.31814L13.6864 11.7387C13.6876 11.742 13.6851 11.7455 13.6816 11.7455H3.60422H3.50403ZM0.633064 11.7823C0.629483 11.7823 0.627004 11.7787 0.62826 11.7754L3.11096 5.14724C3.11171 5.14522 3.11362 5.1439 3.11576 5.1439H5.27294C5.27651 5.1439 5.27899 5.14744 5.27776 5.15078L2.87706 11.779C2.87633 11.781 2.8744 11.7823 2.87224 11.7823H0.633064Z" fill="#D97845"/>
</g>
<defs>
<clipPath id="clip0_1520_18286">
<rect width="13.0588" height="13.0588" fill="white" transform="translate(0.62793 0.529297)"/>
</clipPath>
</defs>
</svg>
