<svg width="14" height="14" viewBox="0 0 14 14" fill="none" xmlns="http://www.w3.org/2000/svg">
<g clip-path="url(#clip0_1520_20853)">
<path fill-rule="evenodd" clip-rule="evenodd" d="M11.6569 10.5644C12.9756 9.50999 13.8039 7.9865 13.8039 6.29227C13.8039 3.10946 10.8806 0.529297 7.27453 0.529297C3.66843 0.529297 0.745117 3.10946 0.745117 6.29227C0.745117 7.92533 1.51471 9.39976 2.75126 10.4484C2.67632 10.7072 2.63521 10.9886 2.63521 11.2829C2.63521 12.556 3.4045 13.5881 4.35348 13.5881C4.97011 13.5881 5.51087 13.1524 5.81401 12.4979C6.11714 13.1524 6.65791 13.5881 7.27453 13.5881C7.83662 13.5881 8.33566 13.226 8.64915 12.6663C8.96264 13.226 9.46168 13.5881 10.0237 13.5881C10.9727 13.5881 11.742 12.556 11.742 11.2829C11.742 11.0321 11.7121 10.7905 11.6569 10.5644ZM11.0547 6.40656C11.0547 8.02243 9.32379 9.33237 7.18863 9.33237C5.05343 9.33237 3.32253 8.02243 3.32253 6.40656C3.32253 4.79068 5.05343 3.48074 7.18863 3.48074C9.32379 3.48074 11.0547 4.79068 11.0547 6.40656Z" fill="#B567CE"/>
</g>
<defs>
<clipPath id="clip0_1520_20853">
<rect width="13.0588" height="13.0588" fill="white" transform="translate(0.745117 0.529297)"/>
</clipPath>
</defs>
</svg>
