<svg width="13" height="14" viewBox="0 0 13 14" fill="none" xmlns="http://www.w3.org/2000/svg">
<path fill-rule="evenodd" clip-rule="evenodd" d="M11.2564 11.3738C11.2564 11.3738 9.60978 12.6945 6.33303 12.148C3.84701 11.7333 2.52108 8.99287 2.52108 7.51982C2.52108 4.02735 5.10596 3.23257 6.85352 3.23257C8.60106 3.23257 9.74108 4.93634 9.74108 6.25549C9.74108 7.57463 8.80809 8.72845 7.35614 8.72845C5.90421 8.72845 5.47419 7.70912 5.47419 6.77197C5.47419 5.83485 6.23239 5.50468 6.92387 5.50468C7.61535 5.50468 7.85212 6.09503 7.85212 6.60241C7.85212 7.10982 7.45844 7.29152 7.13008 7.29152C6.80172 7.29152 6.76925 7.12586 6.64359 6.95176C6.5179 6.77769 6.80387 6.11873 6.33303 6.11873C5.8622 6.11873 5.77444 6.87627 5.77444 6.87627C5.77444 6.87627 5.94609 8.33857 7.35614 8.31335C8.76621 8.2881 9.43514 7.19799 9.24074 6.11873C9.04634 5.03944 7.9989 3.89258 6.16062 4.12432C4.32233 4.35607 3.57178 6.21348 3.90261 8.19842C4.23345 10.1834 6.6114 11.3335 8.48108 10.9197C10.3508 10.5059 12.213 9.15235 12.213 5.72051C12.213 2.28864 9.24074 0.225776 5.69662 0.565748C2.1525 0.905718 -0.0475259 4.00422 0.0932951 7.72713C0.234116 11.45 3.76672 13.4777 6.7539 13.5821C9.74108 13.6867 11.5724 11.9575 11.5724 11.9575C11.5724 11.9575 11.9842 11.5902 11.8227 11.3034C11.6613 11.0167 11.2564 11.3738 11.2564 11.3738Z" fill="#FA7179"/>
</svg>
