<svg width="14" height="14" viewBox="0 0 14 14" fill="none" xmlns="http://www.w3.org/2000/svg">
<g clip-path="url(#clip0_1520_19142)">
<path fill-rule="evenodd" clip-rule="evenodd" d="M10.7062 6.77209C10.7055 6.77107 10.7052 6.7698 10.7054 6.76855L11.5385 1.91061C11.5389 1.90837 11.5409 1.90674 11.5431 1.90674L11.8068 1.90674C11.8088 1.90674 11.8106 1.90806 11.8112 1.91L13.6882 7.85286C13.6888 7.8547 13.6881 7.85674 13.6866 7.85794L12.3027 8.93843C12.3006 8.94004 12.2976 8.93963 12.2961 8.93751L10.7062 6.77209ZM0.602539 9.99255C0.602539 9.99456 0.603835 9.99635 0.60575 9.99698L3.45852 10.9297C3.4599 10.9302 3.46143 10.93 3.46262 10.9292L9.83923 6.52691C9.8403 6.52617 9.84102 6.52502 9.8412 6.52375L10.525 1.93552C10.5254 1.9327 10.5232 1.93017 10.5204 1.93017H4.87231C4.87091 1.93017 4.86961 1.93079 4.86872 1.93186L0.603611 7.07706C0.602918 7.0779 0.602539 7.07895 0.602539 7.08005L0.602539 9.99255ZM4.64728 11.1674L7.76387 12.1883C7.76528 12.1888 7.76683 12.1885 7.76803 12.1877L11.4785 9.5261C11.4806 9.52465 11.4811 9.52182 11.4797 9.51973L10.0888 7.44983C10.0873 7.44766 10.0844 7.4471 10.0822 7.44858L4.64728 11.1674Z" fill="#C5B78C"/>
</g>
<defs>
<clipPath id="clip0_1520_19142">
<rect width="13.0588" height="13.0588" fill="white" transform="translate(0.62793 0.529297)"/>
</clipPath>
</defs>
</svg>
