<svg width="14" height="12" viewBox="0 0 14 12" fill="none" xmlns="http://www.w3.org/2000/svg">
<path fill-rule="evenodd" clip-rule="evenodd" d="M0.629233 6.02114C0.627496 6.01818 0.627495 6.01451 0.629231 6.01152L3.91291 0.401185C3.91462 0.398275 3.91776 0.396484 3.92113 0.396484L10.4295 0.396484C10.4329 0.396484 10.4361 0.39829 10.4378 0.401226L13.6855 6.01157C13.6872 6.01451 13.6872 6.01815 13.6855 6.02109L10.4378 11.6251C10.4361 11.6281 10.4329 11.6299 10.4295 11.6299H3.92113C3.91776 11.6299 3.91462 11.6281 3.91291 11.6252L0.629233 6.02114ZM10.1827 6.01318C10.1827 7.68348 8.82867 9.03755 7.15836 9.03755C5.48806 9.03755 4.13399 7.68348 4.13399 6.01318C4.13399 4.34285 5.48806 2.98881 7.15836 2.98881C8.82867 2.98881 10.1827 4.34285 10.1827 6.01318Z" fill="#5A8EA2"/>
</svg>
